<svg xmlns="http://www.w3.org/2000/svg" width="100.151" height="102.381" viewBox="0 0 100.151 102.381">
  <g id="Group_10505" data-name="Group 10505" transform="translate(0 -0.001)">
    <path id="Path_14937" data-name="Path 14937" d="M-1893.562,1139.737c2,.861,2.652,2.4,2.623,4.531-.087,6.224-.029,12.45-.032,18.676,0,2.705-1.319,4.028-4.044,4.049q-2.6.02-5.195,0c-2.765-.018-4.108-1.358-4.11-4.112-.006-6.159.046-12.318-.028-18.476-.025-2.13.561-3.757,2.589-4.668Z" transform="translate(1919.84 -1139.736)" fill="#053930"/>
    <path id="Path_14938" data-name="Path 14938" d="M-1681.9,1139.737c1.981.881,2.634,2.432,2.607,4.551-.077,6.191-.026,12.384-.028,18.576,0,2.772-1.323,4.11-4.085,4.128-1.8.012-3.6.025-5.394,0a3.553,3.553,0,0,1-3.876-3.928c-.007-6.259.049-12.519-.031-18.776-.027-2.124.632-3.667,2.611-4.547Z" transform="translate(1763.756 -1139.736)" fill="#053930"/>
    <path id="Path_14939" data-name="Path 14939" d="M-1954.417,1182.811c0,.581,0,.973,0,1.364.033,4.062-.072,8.131.136,12.184a9.888,9.888,0,0,0,9.4,8.941c2.3.061,4.6.055,6.9.024a10.154,10.154,0,0,0,10.279-10.344c.031-3.63.006-7.261.006-10.891v-1.164h28.81v1.056c0,3.6-.008,7.194,0,10.791a10.157,10.157,0,0,0,8.393,10.39,15.218,15.218,0,0,0,2.883.162c1.632.024,3.266-.041,4.9.015a10.2,10.2,0,0,0,10.552-10.467c-.051-3.6-.009-7.194-.009-10.791v-1.17a9.131,9.131,0,0,1,6.632,3.125,9.371,9.371,0,0,1,2.314,6.515q0,35.771.015,71.543a9.584,9.584,0,0,1-9.907,9.791c-26.883-.09-53.766-.04-80.649-.043a9.1,9.1,0,0,1-9.316-7.172,11.274,11.274,0,0,1-.268-2.769q-.021-35.571-.007-71.143c0-4.8,2.367-8.125,6.715-9.488C-1955.986,1183.064-1955.289,1182.987-1954.417,1182.811Zm41.123,35.862h-33.677c-3.119,0-4.654,1.529-4.656,4.665q-.007,18.035,0,36.069c0,3.121,1.548,4.645,4.679,4.645h67.154q4.663,0,4.664-4.669,0-18.034,0-36.069c0-3.1-1.559-4.641-4.688-4.641Z" transform="translate(1963.363 -1171.504)" fill="#053930"/>
    <path id="Path_14940" data-name="Path 14940" d="M-1867.8,1345.955c1.231,0,2.463-.016,3.693,0a2.413,2.413,0,0,1,2.712,2.615q.078,3.741,0,7.485a2.479,2.479,0,0,1-2.771,2.687q-3.643.04-7.287,0a2.426,2.426,0,0,1-2.734-2.694q-.051-3.742,0-7.485c.027-1.75.915-2.581,2.689-2.608C-1870.266,1345.94-1869.035,1345.955-1867.8,1345.955Z" transform="translate(1897.616 -1291.818)" fill="#053930"/>
    <path id="Path_14941" data-name="Path 14941" d="M-1790.613,1345.958c1.3,0,2.6-.027,3.892.007a2.321,2.321,0,0,1,2.494,2.5q.043,3.841,0,7.683a2.38,2.38,0,0,1-2.543,2.587q-3.84.083-7.684,0a2.4,2.4,0,0,1-2.549-2.684q-.023-3.741,0-7.483a2.378,2.378,0,0,1,2.595-2.612c.066,0,.133,0,.2,0h3.593Z" transform="translate(1840.68 -1291.818)" fill="#053930"/>
    <path id="Path_14942" data-name="Path 14942" d="M-1707.17,1352.316c0,1.264.03,2.529-.008,3.792a2.389,2.389,0,0,1-2.606,2.616c-2.495.043-4.991.038-7.487,0a2.453,2.453,0,0,1-2.7-2.656q-.076-3.741,0-7.485a2.408,2.408,0,0,1,2.687-2.641q3.743-.035,7.487,0a2.352,2.352,0,0,1,2.619,2.578C-1707.139,1349.787-1707.17,1351.052-1707.17,1352.316Z" transform="translate(1783.886 -1291.803)" fill="#053930"/>
    <path id="Path_14943" data-name="Path 14943" d="M-1867.76,1435.792c-1.3,0-2.595.016-3.892,0a2.269,2.269,0,0,1-2.508-2.367q-.085-3.989,0-7.981a2.316,2.316,0,0,1,2.578-2.419c2.495-.028,4.99-.023,7.485,0a2.449,2.449,0,0,1,2.708,2.639q.077,3.74,0,7.483c-.033,1.78-.983,2.639-2.78,2.65C-1865.365,1435.8-1866.563,1435.792-1867.76,1435.792Z" transform="translate(1897.608 -1348.645)" fill="#053930"/>
    <path id="Path_14944" data-name="Path 14944" d="M-1713.637,1435.8c-1.2,0-2.4.007-3.593,0-1.745-.012-2.706-.854-2.746-2.58q-.088-3.79,0-7.583a2.444,2.444,0,0,1,2.736-2.61q3.692-.028,7.385,0a2.4,2.4,0,0,1,2.666,2.65q.053,3.741,0,7.483c-.025,1.8-.925,2.63-2.756,2.64C-1711.175,1435.8-1712.406,1435.8-1713.637,1435.8Z" transform="translate(1783.897 -1348.648)" fill="#053930"/>
    <path id="Path_14945" data-name="Path 14945" d="M-1790.657,1435.773c-1.264,0-2.528.015-3.792,0a2.349,2.349,0,0,1-2.559-2.542q-.037-3.84,0-7.681a2.362,2.362,0,0,1,2.481-2.538q3.891-.067,7.782,0a2.375,2.375,0,0,1,2.51,2.612q.03,3.79,0,7.581a2.364,2.364,0,0,1-2.631,2.57C-1788.13,1435.783-1789.393,1435.773-1790.657,1435.773Z" transform="translate(1840.689 -1348.625)" fill="#053930"/>
  </g>
</svg>
