<svg id="Group_10474" data-name="Group 10474" xmlns="http://www.w3.org/2000/svg" width="316.783" height="177.491" viewBox="0 0 316.783 177.491">
  <g id="Group_1" data-name="Group 1" transform="translate(95.84 151.058)">
    <path id="Path_1" data-name="Path 1" d="M-339.2-39.347a16.137,16.137,0,0,1,.813-5.177,12.371,12.371,0,0,1,2.351-4.206,10.876,10.876,0,0,1,3.781-2.809,12.062,12.062,0,0,1,5.07-1.025,11.423,11.423,0,0,1,3.853.583,9.867,9.867,0,0,1,2.739,1.448,8.643,8.643,0,0,1,1.818,1.89,10.42,10.42,0,0,1,1.08,1.927,9.46,9.46,0,0,1,.511,1.555c.093.435.142.677.142.724h-1.554a7.552,7.552,0,0,0-1.027-2.845,7.865,7.865,0,0,0-1.944-2.138,8.609,8.609,0,0,0-2.6-1.342,9.812,9.812,0,0,0-3.022-.46,9.888,9.888,0,0,0-4.417.955,9.91,9.91,0,0,0-3.287,2.562,11.271,11.271,0,0,0-2.049,3.763,14.622,14.622,0,0,0-.708,4.595,14.61,14.61,0,0,0,.708,4.594,11.276,11.276,0,0,0,2.049,3.764,9.923,9.923,0,0,0,3.287,2.562,9.888,9.888,0,0,0,4.417.955,7.963,7.963,0,0,0,3.447-.76,9.453,9.453,0,0,0,2.808-2.015,9.981,9.981,0,0,0,1.927-2.9,9.867,9.867,0,0,0,.83-3.411h1.556a12.374,12.374,0,0,1-1.116,4.17,11.618,11.618,0,0,1-2.3,3.3,10.073,10.073,0,0,1-3.233,2.175,9.992,9.992,0,0,1-3.922.776,12.078,12.078,0,0,1-5.07-1.024,10.864,10.864,0,0,1-3.781-2.809,12.39,12.39,0,0,1-2.351-4.206A16.146,16.146,0,0,1-339.2-39.347Z" transform="translate(339.196 52.564)" fill="#083d26"/>
    <path id="Path_2" data-name="Path 2" d="M-313.03-51.988v25.232h-1.342V-51.988Z" transform="translate(340.276 52.589)" fill="#083d26"/>
    <path id="Path_3" data-name="Path 3" d="M-294.605-27.05h-1.342v-3.887h-.072a5.837,5.837,0,0,1-1.006,1.82,6.726,6.726,0,0,1-1.522,1.36,6.681,6.681,0,0,1-1.89.849,7.82,7.82,0,0,1-2.084.282,8.211,8.211,0,0,1-2.7-.389,5.257,5.257,0,0,1-1.821-1.024,4.927,4.927,0,0,1-1.112-1.433,6.5,6.5,0,0,1-.583-1.607,9.287,9.287,0,0,1-.214-1.572c-.024-.507-.034-.949-.034-1.326V-45.216h1.342V-33.73a16.386,16.386,0,0,0,.106,1.713,5.1,5.1,0,0,0,.618,1.944,4.534,4.534,0,0,0,1.538,1.608,5.269,5.269,0,0,0,2.9.672,6.445,6.445,0,0,0,2.738-.566,5.934,5.934,0,0,0,2.067-1.573,6.892,6.892,0,0,0,1.289-2.4,10.012,10.012,0,0,0,.443-3.056v-9.825h1.342Z" transform="translate(340.511 52.884)" fill="#083d26"/>
    <path id="Path_4" data-name="Path 4" d="M-291.107-51.988h1.307v10.919h.07a5.675,5.675,0,0,1,1.1-1.854A6.886,6.886,0,0,1-287-44.267a7.281,7.281,0,0,1,1.982-.813,9.065,9.065,0,0,1,2.2-.265,7.98,7.98,0,0,1,3.49.708,7,7,0,0,1,2.461,1.943,8.215,8.215,0,0,1,1.47,2.881,12.67,12.67,0,0,1,.479,3.551,12.867,12.867,0,0,1-.885,5.213,8.317,8.317,0,0,1-2.126,3,6.441,6.441,0,0,1-2.586,1.378,9.806,9.806,0,0,1-2.3.336,7.444,7.444,0,0,1-3.064-.566,7.474,7.474,0,0,1-2.073-1.325,6.482,6.482,0,0,1-1.241-1.5,6.112,6.112,0,0,1-.532-1.1h-.067v4.065h-1.311ZM-282.82-27.5a5.636,5.636,0,0,0,3.049-.778,6.266,6.266,0,0,0,2.018-2.031,9.135,9.135,0,0,0,1.134-2.828,14.277,14.277,0,0,0,.356-3.127,10.517,10.517,0,0,0-.409-2.933,7.733,7.733,0,0,0-1.241-2.527,6.347,6.347,0,0,0-2.054-1.784,5.848,5.848,0,0,0-2.854-.671,7.344,7.344,0,0,0-3.082.6,5.841,5.841,0,0,0-2.161,1.66,7.2,7.2,0,0,0-1.275,2.51,11.109,11.109,0,0,0-.426,3.145,13.614,13.614,0,0,0,.391,3.252,8.484,8.484,0,0,0,1.222,2.809,6.356,6.356,0,0,0,2.144,1.962A6.371,6.371,0,0,0-282.82-27.5Z" transform="translate(341.289 52.589)" fill="#083d26"/>
    <path id="Path_5" data-name="Path 5" d="M-249.1-30.643h-.072A8.243,8.243,0,0,1-252-27.41a7.556,7.556,0,0,1-4.133,1.078,7.548,7.548,0,0,1-3.535-.776,7.007,7.007,0,0,1-2.439-2.086,8.98,8.98,0,0,1-1.412-3.022,13.721,13.721,0,0,1-.46-3.586,13.693,13.693,0,0,1,.495-3.764,8.488,8.488,0,0,1,1.5-3.022,7.2,7.2,0,0,1,2.527-2.015,8.031,8.031,0,0,1,3.567-.742,7.828,7.828,0,0,1,2.156.3,7.581,7.581,0,0,1,1.963.865,6.156,6.156,0,0,1,1.572,1.414,6.22,6.22,0,0,1,1.025,1.909h.072V-51.988h1.342v25.232H-249.1Zm-6.749,3.145a5.982,5.982,0,0,0,2.984-.708,6.346,6.346,0,0,0,2.086-1.873,8.328,8.328,0,0,0,1.238-2.667,11.684,11.684,0,0,0,.407-3.056,11.823,11.823,0,0,0-.407-3.093,8.825,8.825,0,0,0-1.219-2.686,6.051,6.051,0,0,0-2.1-1.891,6.194,6.194,0,0,0-3.022-.706,6.357,6.357,0,0,0-3.072.69,6.1,6.1,0,0,0-2.1,1.854,7.73,7.73,0,0,0-1.2,2.686,13.118,13.118,0,0,0-.372,3.146,11.808,11.808,0,0,0,.407,3.091,8.281,8.281,0,0,0,1.238,2.668,6.144,6.144,0,0,0,2.1,1.856A6.307,6.307,0,0,0-255.851-27.5Z" transform="translate(342.47 52.589)" fill="#083d26"/>
    <path id="Path_6" data-name="Path 6" d="M-241.907-48.349a8.861,8.861,0,0,1-.107,1.4,5.02,5.02,0,0,1-.368,1.29,3.671,3.671,0,0,1-.709,1.06,2.935,2.935,0,0,1-1.078.708v-1.167a1.327,1.327,0,0,0,.618-.583,4.094,4.094,0,0,0,.371-.883A4.606,4.606,0,0,0-243-47.5c.024-.331.035-.613.035-.849h-.741v-3.639h1.8Z" transform="translate(343.332 52.589)" fill="#083d26"/>
    <path id="Path_7" data-name="Path 7" d="M-225.342-30.638h-.072a5.621,5.621,0,0,1-.917,1.538,6.566,6.566,0,0,1-1.468,1.29,7.219,7.219,0,0,1-1.96.883,8.591,8.591,0,0,1-2.4.318,7.085,7.085,0,0,1-4.487-1.254,4.622,4.622,0,0,1-1.591-3.869,4.786,4.786,0,0,1,.636-2.6A4.819,4.819,0,0,1-236-35.921a6.931,6.931,0,0,1,2.156-.831,21.3,21.3,0,0,1,2.28-.353l2.084-.176a12.2,12.2,0,0,0,2.28-.336,2.908,2.908,0,0,0,1.254-.637,1.8,1.8,0,0,0,.53-1.042,9.76,9.76,0,0,0,.106-1.589,3.346,3.346,0,0,0-.283-1.378,3.1,3.1,0,0,0-.883-1.131,4.392,4.392,0,0,0-1.556-.777,8.329,8.329,0,0,0-2.332-.283,6.128,6.128,0,0,0-3.941,1.2,4.759,4.759,0,0,0-1.642,3.64h-1.342a5.95,5.95,0,0,1,1.925-4.506,7.67,7.67,0,0,1,5.071-1.5q3.289,0,4.789,1.291a4.23,4.23,0,0,1,1.5,3.375V-30.39c0,.259.005.519.017.777a2.572,2.572,0,0,0,.125.706,1.041,1.041,0,0,0,.353.511,1.116,1.116,0,0,0,.706.2,6.436,6.436,0,0,0,.989-.107v1.131a4.2,4.2,0,0,1-1.094.142,3.23,3.23,0,0,1-1.292-.213,1.687,1.687,0,0,1-.724-.565,2.084,2.084,0,0,1-.335-.832,5.759,5.759,0,0,1-.088-1.041Zm0-6.714a2.561,2.561,0,0,1-1.5.813,18.657,18.657,0,0,1-2.244.318l-2.262.211q-.991.106-1.979.3a5.787,5.787,0,0,0-1.786.653A3.653,3.653,0,0,0-236.4-33.8a3.871,3.871,0,0,0-.495,2.068,3.518,3.518,0,0,0,1.272,2.986,5.629,5.629,0,0,0,3.5.973,6.881,6.881,0,0,0,3.64-.831,6.418,6.418,0,0,0,2.051-1.91,5.908,5.908,0,0,0,.9-2.084,9.077,9.077,0,0,0,.2-1.361Z" transform="translate(343.59 52.866)" fill="#083d26"/>
    <path id="Path_8" data-name="Path 8" d="M-217.8-43.743v17h-1.342v-17h-3.253v-1.167h3.253v-3.746a3.866,3.866,0,0,1,.317-1.642,2.913,2.913,0,0,1,.867-1.112,3.775,3.775,0,0,1,1.27-.637,5.428,5.428,0,0,1,1.537-.213,9.631,9.631,0,0,1,1.591.177v1.167a9.5,9.5,0,0,0-1.591-.176,3.319,3.319,0,0,0-1.89.511,2.3,2.3,0,0,0-.76,2.033v3.639h5.974v-3.746a3.914,3.914,0,0,1,.315-1.642,2.962,2.962,0,0,1,.866-1.112,3.791,3.791,0,0,1,1.273-.637,5.412,5.412,0,0,1,1.537-.213,9.631,9.631,0,0,1,1.591.177v1.167a9.5,9.5,0,0,0-1.591-.176,3.312,3.312,0,0,0-1.89.511,2.294,2.294,0,0,0-.76,2.033v3.639h3.781v1.167h-3.781v17h-1.342v-17Z" transform="translate(344.28 52.577)" fill="#083d26"/>
    <path id="Path_9" data-name="Path 9" d="M-193.239-30.638h-.072a5.6,5.6,0,0,1-.917,1.538,6.519,6.519,0,0,1-1.468,1.29,7.19,7.19,0,0,1-1.96.883,8.58,8.58,0,0,1-2.4.318,7.087,7.087,0,0,1-4.487-1.254,4.622,4.622,0,0,1-1.59-3.869,4.777,4.777,0,0,1,.636-2.6,4.8,4.8,0,0,1,1.607-1.591,6.926,6.926,0,0,1,2.155-.831,21.359,21.359,0,0,1,2.281-.353l2.083-.176a12.217,12.217,0,0,0,2.281-.336,2.921,2.921,0,0,0,1.254-.637,1.8,1.8,0,0,0,.529-1.042,9.742,9.742,0,0,0,.107-1.589,3.329,3.329,0,0,0-.284-1.378,3.084,3.084,0,0,0-.883-1.131,4.383,4.383,0,0,0-1.556-.777,8.324,8.324,0,0,0-2.332-.283,6.128,6.128,0,0,0-3.941,1.2,4.762,4.762,0,0,0-1.641,3.64h-1.343a5.947,5.947,0,0,1,1.926-4.506,7.666,7.666,0,0,1,5.069-1.5q3.289,0,4.79,1.291a4.229,4.229,0,0,1,1.5,3.375V-30.39c0,.259.005.519.016.777a2.574,2.574,0,0,0,.126.706,1.034,1.034,0,0,0,.353.511,1.111,1.111,0,0,0,.705.2,6.413,6.413,0,0,0,.989-.107v1.131a4.2,4.2,0,0,1-1.094.142,3.224,3.224,0,0,1-1.291-.213,1.69,1.69,0,0,1-.725-.565,2.067,2.067,0,0,1-.334-.832,5.758,5.758,0,0,1-.089-1.041Zm0-6.714a2.557,2.557,0,0,1-1.5.813,18.658,18.658,0,0,1-2.244.318l-2.262.211q-.991.106-1.978.3a5.788,5.788,0,0,0-1.787.653A3.661,3.661,0,0,0-204.3-33.8a3.88,3.88,0,0,0-.495,2.068,3.516,3.516,0,0,0,1.273,2.986,5.625,5.625,0,0,0,3.5.973,6.878,6.878,0,0,0,3.639-.831,6.411,6.411,0,0,0,2.051-1.91,5.885,5.885,0,0,0,.9-2.084,9.094,9.094,0,0,0,.2-1.361Z" transform="translate(344.987 52.866)" fill="#083d26"/>
    <path id="Path_10" data-name="Path 10" d="M-188.088-48.349v-3.639h1.343v3.639Zm0,21.594V-44.921h1.343v18.166Z" transform="translate(345.773 52.589)" fill="#083d26"/>
    <path id="Path_11" data-name="Path 11" d="M-181.362-41.182h.107a4.4,4.4,0,0,1,.9-1.66,6.338,6.338,0,0,1,1.59-1.343,7.858,7.858,0,0,1,2.083-.866,8.5,8.5,0,0,1,2.385-.265v1.343a6.374,6.374,0,0,0-2.42.212,5.872,5.872,0,0,0-2.6,1.555,12.6,12.6,0,0,0-.866,1.025,4.784,4.784,0,0,0-.618,1.1,6.764,6.764,0,0,0-.39,1.342,11.985,11.985,0,0,0-.177,1.768v9.93H-182.7V-45.211h1.342Z" transform="translate(346.007 52.879)" fill="#083d26"/>
    <path id="Path_12" data-name="Path 12" d="M-173.164-35.939v.213a10.756,10.756,0,0,0,.425,3.039,7.759,7.759,0,0,0,1.26,2.545,5.978,5.978,0,0,0,2.089,1.731,6.4,6.4,0,0,0,2.923.637,6.225,6.225,0,0,0,4.323-1.433,7.486,7.486,0,0,0,2.2-3.975h1.342a8.136,8.136,0,0,1-2.6,4.876,7.887,7.887,0,0,1-5.284,1.7A8,8,0,0,1-170-27.334a7.118,7.118,0,0,1-2.509-1.979,8.333,8.333,0,0,1-1.5-2.968,13.188,13.188,0,0,1-.495-3.693,12.924,12.924,0,0,1,.513-3.659,9.141,9.141,0,0,1,1.535-3.073,7.6,7.6,0,0,1,2.564-2.12,7.76,7.76,0,0,1,3.621-.8,7.674,7.674,0,0,1,3.375.708,7.073,7.073,0,0,1,2.458,1.925,8.549,8.549,0,0,1,1.5,2.828,11.269,11.269,0,0,1,.513,3.446c0,.118-.005.253-.019.406s-.016.278-.016.37ZM-159.8-37.1a10.912,10.912,0,0,0-.5-2.809,6.972,6.972,0,0,0-1.257-2.333,6.256,6.256,0,0,0-2.021-1.607,5.909,5.909,0,0,0-2.709-.6,6.363,6.363,0,0,0-2.872.619,6.406,6.406,0,0,0-2.088,1.626,7.249,7.249,0,0,0-1.313,2.349,11.17,11.17,0,0,0-.568,2.757Z" transform="translate(346.364 52.866)" fill="#083d26"/>
    <path id="Path_13" data-name="Path 13" d="M-155.452-33.077a5.618,5.618,0,0,0,.565,2.246,5.49,5.49,0,0,0,1.292,1.66,5.359,5.359,0,0,0,1.855,1.042,7.2,7.2,0,0,0,2.3.354,12.24,12.24,0,0,0,1.891-.16,6.574,6.574,0,0,0,1.872-.582A3.893,3.893,0,0,0-144.25-29.7a3.136,3.136,0,0,0,.567-1.925,2.843,2.843,0,0,0-.919-2.3,6.432,6.432,0,0,0-2.313-1.2,23.887,23.887,0,0,0-3.005-.689,15.589,15.589,0,0,1-3-.8,6.093,6.093,0,0,1-2.316-1.5,3.992,3.992,0,0,1-.917-2.845,3.946,3.946,0,0,1,.6-2.244,4.48,4.48,0,0,1,1.537-1.433,7.016,7.016,0,0,1,2.1-.759,11.918,11.918,0,0,1,2.332-.231,10.631,10.631,0,0,1,2.65.318,5.774,5.774,0,0,1,2.139,1.025,4.9,4.9,0,0,1,1.412,1.8,6.221,6.221,0,0,1,.513,2.652h-1.342a5.062,5.062,0,0,0-.407-2.121,3.743,3.743,0,0,0-1.131-1.432,4.934,4.934,0,0,0-1.713-.811,8.1,8.1,0,0,0-2.12-.266,9.979,9.979,0,0,0-1.856.176,5.372,5.372,0,0,0-1.679.6,3.784,3.784,0,0,0-1.22,1.1,2.731,2.731,0,0,0-.476,1.626,2.768,2.768,0,0,0,.53,1.767,3.782,3.782,0,0,0,1.4,1.078,9.634,9.634,0,0,0,1.944.654q1.079.246,2.175.495,1.338.246,2.526.582a7.147,7.147,0,0,1,2.048.919,4.17,4.17,0,0,1,1.361,1.5,4.892,4.892,0,0,1,.495,2.332,4.15,4.15,0,0,1-.671,2.439,5.2,5.2,0,0,1-1.695,1.537,7.227,7.227,0,0,1-2.281.813,13.6,13.6,0,0,1-2.455.23,9.728,9.728,0,0,1-2.88-.407,6.483,6.483,0,0,1-2.316-1.237,5.87,5.87,0,0,1-1.556-2.032,6.82,6.82,0,0,1-.6-2.792Z" transform="translate(347.135 52.866)" fill="#083d26"/>
  </g>
  <g id="Group_3" data-name="Group 3" transform="translate(95.126 53.901)">
    <g id="Group_2" data-name="Group 2" transform="translate(0 17.641)">
      <path id="Path_14" data-name="Path 14" d="M-275.884-118.356a37.692,37.692,0,0,0-26.572-10.407,37.027,37.027,0,0,0-21.948,6.848,28.507,28.507,0,0,1,5.449,4.571,14.98,14.98,0,0,1,2.12,2.867,26.585,26.585,0,0,1,14.379-3.988,27.057,27.057,0,0,1,18.989,7.419A23.311,23.311,0,0,1-275.552-93a23.485,23.485,0,0,1-8.028,17.825,27.109,27.109,0,0,1-18.876,7.2,26.771,26.771,0,0,1-18.714-7.2A23.547,23.547,0,0,1-329.141-93a25.142,25.142,0,0,1,1.014-7.163,22.312,22.312,0,0,0-10.237,4.394c-.52.387-.96.812-1.442,1.217-.022.519-.074,1.025-.074,1.552a33.139,33.139,0,0,0,11.071,25.243,37.368,37.368,0,0,0,26.353,10.3,37.9,37.9,0,0,0,26.572-10.3A32.991,32.991,0,0,0-264.7-93,33.338,33.338,0,0,0-275.884-118.356Z" transform="translate(339.88 128.763)" fill="#083d26"/>
    </g>
    <path id="Path_15" data-name="Path 15" d="M-266.671-145.316h10.961v18.269h24.027v10.3H-255.71v34.134a16.579,16.579,0,0,0,.941,4.532,15.538,15.538,0,0,0,1.826,4.2q4.32,6.076,15.28,6.075h8.193v10.075q-.66,0-7.086.11-4.762.113-7.75,0a35.417,35.417,0,0,1-7.2-1.215,19.84,19.84,0,0,1-10.964-7.629A21.21,21.21,0,0,1-266.671-79.3Z" transform="translate(343.066 145.684)" fill="#083d26"/>
    <path id="Path_16" data-name="Path 16" d="M-200.7-57.459a37.364,37.364,0,0,1-26.353-10.3A33.139,33.139,0,0,1-238.129-93a33.49,33.49,0,0,1,11.071-25.356A37.158,37.158,0,0,1-200.7-128.763a37.691,37.691,0,0,1,26.572,10.407A33.338,33.338,0,0,1-162.95-93a32.991,32.991,0,0,1-11.182,25.243A37.9,37.9,0,0,1-200.7-57.459Zm0-61.008a26.463,26.463,0,0,0-18.823,7.419A23.872,23.872,0,0,0-227.39-93a23.54,23.54,0,0,0,7.971,17.825,26.77,26.77,0,0,0,18.714,7.2,27.109,27.109,0,0,0,18.876-7.2A23.484,23.484,0,0,0-173.8-93a23.3,23.3,0,0,0-7.915-18.047A27.053,27.053,0,0,0-200.7-118.467Z" transform="translate(344.309 146.404)" fill="#083d26"/>
    <path id="Path_17" data-name="Path 17" d="M-163.118-123.93a21.087,21.087,0,0,1,4.205-12.733,20.422,20.422,0,0,1,10.964-7.751,31.487,31.487,0,0,1,7.2-1.106q3.1-.221,7.749-.112,6.421.222,7.087.222v9.965h-8.194q-10.851,0-15.279,5.943a15.479,15.479,0,0,0-1.827,4.24,16.941,16.941,0,0,0-.941,4.457v4.182h24.137v10.408h-24.137v48.5h-10.96Z" transform="translate(347.574 145.668)" fill="#083d26"/>
  </g>
  <g id="Group_5" data-name="Group 5" transform="translate(0 0)">
    <g id="Group_4" data-name="Group 4" transform="translate(0 0)">
      <path id="Path_18" data-name="Path 18" d="M-348.024-61.034c-3.752-2.388-7.562-4.691-11.247-7.178a117.335,117.335,0,0,1-26.4-23.925c-8.636-10.811-14.695-22.847-17.015-36.576-2.026-12-1.3-23.792,3.575-35.075,3.117-7.212,8.422-12.734,14.576-17.46,9.639-7.406,20.516-12.344,32.076-15.884.151-.046.308-.073.8-.188-1.145,1.189-2.087,2.153-3.016,3.131-9.3,9.791-17.145,20.578-22.376,33.1q-15.069,36.078,3.881,70.323c6.171,11.145,14.55,20.461,24.3,28.584.345.287.7.569,1.043.853Z" transform="translate(432.226 197.321)" fill="#083d26"/>
      <path id="Path_19" data-name="Path 19" d="M-349.5-69.843c-8.215-8.982-16.085-17.924-20.593-29.224-1.705-4.275-2.694-8.7-1.741-13.327,1.1-5.333,4.412-9.011,9.123-11.386,9.454-4.766,19.258-5.135,29.2-1.723a31.5,31.5,0,0,1,13.419,8.349c1.619,1.775,2.94,3.732,2.989,6.3.006.3.481.65.812.862a35.6,35.6,0,0,1,4.23,2.665,7.444,7.444,0,0,1,2.454,7.77,8.083,8.083,0,0,1-3.452,4.645c.61-1.458.877-2.5-.011-2.99-8.693-4.8-17.464-5.381-26.047,1.009C-348.03-90.256-351.49-81.144-349.5-69.843Z" transform="translate(433.599 200.349)" fill="#083d26"/>
      <path id="Path_20" data-name="Path 20" d="M-354.567-65.386c-3.264-1.163-6.545-2.279-9.786-3.5-11.261-4.245-22.086-9.357-31.995-16.26-7.793-5.43-14.734-11.735-19.917-19.789a41.322,41.322,0,0,1-7.061-22.662c-.007-8.035,2.572-15.275,6.862-21.964a47.2,47.2,0,0,1,8.271-9.745c-.369,2.506-.728,4.727-1.02,6.956-1.409,10.8-1.564,21.567,1.213,32.212,3.236,12.4,10.189,22.5,19.444,31.145,8.282,7.74,17.659,13.953,27.43,19.609,2.194,1.27,4.412,2.5,6.619,3.747Z" transform="translate(431.374 198.975)" fill="#083d26"/>
      <path id="Path_21" data-name="Path 21" d="M-370.064-70.142c-5.909-1.3-11.819-2.586-17.724-3.9-7.951-1.77-15.877-3.635-23.465-6.674A39.874,39.874,0,0,1-422.5-87.14c-6.268-5.331-8.9-12.2-8.5-20.269a29.368,29.368,0,0,1,3.066-12.034c.226,1.024.414,1.868.6,2.713,2.761,12.519,9.876,22,20.293,29.212,8.141,5.633,17.1,9.616,26.27,13.193,3.576,1.4,7.2,2.684,10.8,4.022Z" transform="translate(431.038 200.711)" fill="#083d26"/>
    </g>
  </g>
</svg>
