<svg xmlns="http://www.w3.org/2000/svg" width="711.152" height="398.453" viewBox="0 0 711.152 398.453">
  <g id="Group_10474" data-name="Group 10474" transform="translate(0)">
    <g id="Group_1" data-name="Group 1" transform="translate(215.152 339.112)">
      <path id="Path_1" data-name="Path 1" d="M-339.2-22.892a36.226,36.226,0,0,1,1.825-11.622,27.771,27.771,0,0,1,5.278-9.443,24.416,24.416,0,0,1,8.487-6.306,27.078,27.078,0,0,1,11.383-2.3,25.644,25.644,0,0,1,8.649,1.31A22.151,22.151,0,0,1-297.425-48a19.4,19.4,0,0,1,4.081,4.242,23.39,23.39,0,0,1,2.425,4.327,21.235,21.235,0,0,1,1.148,3.491c.209.977.319,1.52.319,1.626h-3.488a16.953,16.953,0,0,0-2.305-6.386,17.657,17.657,0,0,0-4.364-4.8,19.327,19.327,0,0,0-5.829-3.013,22.026,22.026,0,0,0-6.784-1.033,22.2,22.2,0,0,0-9.916,2.144,22.247,22.247,0,0,0-7.379,5.751,25.3,25.3,0,0,0-4.6,8.448,32.825,32.825,0,0,0-1.59,10.315,32.8,32.8,0,0,0,1.59,10.312,25.314,25.314,0,0,0,4.6,8.45,22.276,22.276,0,0,0,7.379,5.751,22.2,22.2,0,0,0,9.916,2.144,17.876,17.876,0,0,0,7.738-1.705,21.221,21.221,0,0,0,6.3-4.524,22.406,22.406,0,0,0,4.327-6.5,22.15,22.15,0,0,0,1.863-7.658h3.493A27.778,27.778,0,0,1-291-7.265,26.081,26.081,0,0,1-296.16.152a22.613,22.613,0,0,1-7.258,4.882,22.432,22.432,0,0,1-8.806,1.743,27.114,27.114,0,0,1-11.383-2.3,24.388,24.388,0,0,1-8.487-6.306,27.815,27.815,0,0,1-5.278-9.443A36.247,36.247,0,0,1-339.2-22.892Z" transform="translate(339.196 52.564)" fill="#fff"/>
      <path id="Path_2" data-name="Path 2" d="M-311.36-51.988V4.657h-3.012V-51.988Z" transform="translate(372.525 53.337)" fill="#fff"/>
      <path id="Path_3" data-name="Path 3" d="M-276.7-4.436h-3.013v-8.726h-.161a13.1,13.1,0,0,1-2.258,4.086,15.1,15.1,0,0,1-3.416,3.052,15,15,0,0,1-4.242,1.907,17.554,17.554,0,0,1-4.678.633,18.432,18.432,0,0,1-6.067-.874,11.8,11.8,0,0,1-4.088-2.3,11.062,11.062,0,0,1-2.5-3.216,14.589,14.589,0,0,1-1.309-3.608,20.84,20.84,0,0,1-.48-3.528c-.054-1.139-.077-2.129-.077-2.977v-25.23h3.012v25.785a36.778,36.778,0,0,0,.239,3.847,11.459,11.459,0,0,0,1.387,4.364A10.179,10.179,0,0,0-300.9-7.61,11.829,11.829,0,0,0-294.389-6.1a14.469,14.469,0,0,0,6.147-1.27A13.322,13.322,0,0,0-283.6-10.9a15.471,15.471,0,0,0,2.893-5.4,22.476,22.476,0,0,0,1-6.862V-45.216h3.013Z" transform="translate(379.754 62.43)" fill="#fff"/>
      <path id="Path_4" data-name="Path 4" d="M-291.107-51.988h2.935v24.513h.157a12.739,12.739,0,0,1,2.467-4.163,15.456,15.456,0,0,1,3.662-3.017,16.344,16.344,0,0,1,4.449-1.825,20.35,20.35,0,0,1,4.934-.6,17.915,17.915,0,0,1,7.834,1.588,15.719,15.719,0,0,1,5.524,4.362,18.441,18.441,0,0,1,3.3,6.468,28.441,28.441,0,0,1,1.075,7.972q0,7.3-1.987,11.7a18.669,18.669,0,0,1-4.772,6.74,14.459,14.459,0,0,1-5.805,3.095,22.014,22.014,0,0,1-5.17.754,16.711,16.711,0,0,1-6.878-1.27,16.778,16.778,0,0,1-4.653-2.975,14.55,14.55,0,0,1-2.785-3.371,13.713,13.713,0,0,1-1.195-2.46h-.15V4.657h-2.942Zm18.6,54.979a12.653,12.653,0,0,0,6.845-1.748,14.067,14.067,0,0,0,4.531-4.559,20.51,20.51,0,0,0,2.546-6.349,32.054,32.054,0,0,0,.8-7.021,23.61,23.61,0,0,0-.918-6.585,17.361,17.361,0,0,0-2.785-5.674,14.247,14.247,0,0,0-4.61-4.006,13.127,13.127,0,0,0-6.407-1.506,16.486,16.486,0,0,0-6.92,1.349,13.112,13.112,0,0,0-4.852,3.727,16.155,16.155,0,0,0-2.863,5.634,24.937,24.937,0,0,0-.956,7.061,30.563,30.563,0,0,0,.879,7.3,19.049,19.049,0,0,0,2.743,6.306,14.269,14.269,0,0,0,4.814,4.4A14.3,14.3,0,0,0-272.5,2.991Z" transform="translate(403.762 53.337)" fill="#fff"/>
      <path id="Path_5" data-name="Path 5" d="M-230.579-4.07h-.162a18.5,18.5,0,0,1-6.346,7.257,16.962,16.962,0,0,1-9.279,2.42A16.945,16.945,0,0,1-254.3,3.865a15.731,15.731,0,0,1-5.475-4.683,20.161,20.161,0,0,1-3.17-6.784,30.806,30.806,0,0,1-1.033-8.049,30.738,30.738,0,0,1,1.11-8.45,19.052,19.052,0,0,1,3.373-6.784,16.162,16.162,0,0,1,5.674-4.524,18.028,18.028,0,0,1,8.007-1.666,17.574,17.574,0,0,1,4.84.677,17.018,17.018,0,0,1,4.406,1.942,13.819,13.819,0,0,1,3.528,3.174,13.962,13.962,0,0,1,2.3,4.285h.162V-51.988h3.013V4.657h-3.013Zm-15.152,7.061a13.429,13.429,0,0,0,6.7-1.588A14.246,14.246,0,0,0-234.348-2.8,18.7,18.7,0,0,0-231.57-8.79a26.229,26.229,0,0,0,.914-6.862,26.542,26.542,0,0,0-.914-6.944,19.811,19.811,0,0,0-2.736-6.03,13.584,13.584,0,0,0-4.725-4.245,13.9,13.9,0,0,0-6.784-1.586,14.27,14.27,0,0,0-6.9,1.548,13.7,13.7,0,0,0-4.725,4.163,17.354,17.354,0,0,0-2.694,6.03,29.449,29.449,0,0,0-.836,7.063,26.506,26.506,0,0,0,.914,6.939,18.588,18.588,0,0,0,2.778,5.99,13.793,13.793,0,0,0,4.72,4.168A14.158,14.158,0,0,0-245.731,2.991Z" transform="translate(440.183 53.337)" fill="#fff"/>
      <path id="Path_6" data-name="Path 6" d="M-239.09-43.819a19.893,19.893,0,0,1-.241,3.134,11.272,11.272,0,0,1-.827,2.9,8.243,8.243,0,0,1-1.591,2.38,6.589,6.589,0,0,1-2.42,1.588V-36.44a2.98,2.98,0,0,0,1.387-1.31,9.191,9.191,0,0,0,.834-1.982,10.342,10.342,0,0,0,.4-2.181c.054-.743.08-1.375.08-1.907h-1.663v-8.169h4.046Z" transform="translate(466.782 53.337)" fill="#fff"/>
      <path id="Path_7" data-name="Path 7" d="M-209.282-11.984h-.162A12.617,12.617,0,0,1-211.5-8.531a14.74,14.74,0,0,1-3.3,2.9,16.2,16.2,0,0,1-4.4,1.982,19.286,19.286,0,0,1-5.4.715q-6.511,0-10.073-2.816t-3.573-8.686a10.745,10.745,0,0,1,1.429-5.831,10.819,10.819,0,0,1,3.608-3.573,15.56,15.56,0,0,1,4.84-1.865,47.828,47.828,0,0,1,5.119-.792l4.678-.4a27.4,27.4,0,0,0,5.119-.754,6.529,6.529,0,0,0,2.816-1.429,4.035,4.035,0,0,0,1.19-2.34,21.907,21.907,0,0,0,.239-3.568,7.512,7.512,0,0,0-.635-3.095,6.951,6.951,0,0,0-1.982-2.539,9.86,9.86,0,0,0-3.493-1.745A18.7,18.7,0,0,0-220.55-43a13.757,13.757,0,0,0-8.848,2.7q-3.37,2.7-3.687,8.171H-236.1q.316-6.74,4.322-10.115t11.383-3.371q7.383,0,10.75,2.9a9.5,9.5,0,0,1,3.374,7.576v23.721c0,.581.012,1.164.037,1.745a5.776,5.776,0,0,0,.281,1.586,2.337,2.337,0,0,0,.792,1.148,2.507,2.507,0,0,0,1.586.44,14.449,14.449,0,0,0,2.221-.241v2.539a9.424,9.424,0,0,1-2.455.319,7.251,7.251,0,0,1-2.9-.478,3.787,3.787,0,0,1-1.626-1.267,4.68,4.68,0,0,1-.752-1.867,12.929,12.929,0,0,1-.2-2.338Zm0-15.072a5.748,5.748,0,0,1-3.373,1.825,41.884,41.884,0,0,1-5.037.715l-5.079.473q-2.224.239-4.442.677a12.991,12.991,0,0,0-4.011,1.466,8.2,8.2,0,0,0-2.893,2.816,8.691,8.691,0,0,0-1.11,4.643q0,4.522,2.856,6.7t7.853,2.183a15.448,15.448,0,0,0,8.171-1.865,14.407,14.407,0,0,0,4.6-4.287,13.263,13.263,0,0,0,2.024-4.678,20.377,20.377,0,0,0,.438-3.055Z" transform="translate(474.74 61.885)" fill="#fff"/>
      <path id="Path_8" data-name="Path 8" d="M-212.078-33.139V5.022h-3.013V-33.139h-7.3v-2.619h7.3v-8.41a8.678,8.678,0,0,1,.712-3.687,6.539,6.539,0,0,1,1.947-2.5,8.475,8.475,0,0,1,2.851-1.429,12.187,12.187,0,0,1,3.451-.478,21.62,21.62,0,0,1,3.573.4v2.619a21.328,21.328,0,0,0-3.573-.4,7.451,7.451,0,0,0-4.242,1.148q-1.7,1.153-1.705,4.563v8.169h13.411v-8.41a8.787,8.787,0,0,1,.708-3.687,6.649,6.649,0,0,1,1.944-2.5,8.509,8.509,0,0,1,2.858-1.429,12.15,12.15,0,0,1,3.451-.478,21.62,21.62,0,0,1,3.573.4v2.619a21.327,21.327,0,0,0-3.573-.4,7.436,7.436,0,0,0-4.242,1.148c-1.141.768-1.705,2.289-1.705,4.563v8.169h8.487v2.619h-8.487V5.022h-3.013V-33.139Z" transform="translate(496.019 52.972)" fill="#fff"/>
      <path id="Path_9" data-name="Path 9" d="M-177.181-11.984h-.162A12.56,12.56,0,0,1-179.4-8.531a14.635,14.635,0,0,1-3.3,2.9,16.141,16.141,0,0,1-4.4,1.982,19.261,19.261,0,0,1-5.4.715q-6.508,0-10.074-2.816t-3.57-8.686a10.724,10.724,0,0,1,1.429-5.831,10.776,10.776,0,0,1,3.608-3.573,15.549,15.549,0,0,1,4.838-1.865,47.95,47.95,0,0,1,5.121-.792l4.676-.4a27.426,27.426,0,0,0,5.121-.754,6.556,6.556,0,0,0,2.816-1.429,4.032,4.032,0,0,0,1.188-2.34,21.871,21.871,0,0,0,.241-3.568,7.474,7.474,0,0,0-.637-3.095,6.924,6.924,0,0,0-1.982-2.539,9.839,9.839,0,0,0-3.493-1.745A18.687,18.687,0,0,0-188.449-43a13.756,13.756,0,0,0-8.848,2.7q-3.366,2.7-3.685,8.171H-204q.316-6.74,4.324-10.115t11.38-3.371q7.383,0,10.753,2.9a9.495,9.495,0,0,1,3.373,7.576v23.721c0,.581.012,1.164.035,1.745a5.776,5.776,0,0,0,.283,1.586,2.32,2.32,0,0,0,.792,1.148,2.5,2.5,0,0,0,1.584.44,14.4,14.4,0,0,0,2.221-.241v2.539a9.426,9.426,0,0,1-2.455.319,7.238,7.238,0,0,1-2.9-.478,3.793,3.793,0,0,1-1.628-1.267,4.64,4.64,0,0,1-.75-1.867,12.927,12.927,0,0,1-.2-2.338Zm0-15.072a5.741,5.741,0,0,1-3.374,1.825,41.887,41.887,0,0,1-5.037.715l-5.079.473q-2.224.239-4.442.677a12.993,12.993,0,0,0-4.011,1.466,8.219,8.219,0,0,0-2.893,2.816,8.711,8.711,0,0,0-1.111,4.643q0,4.522,2.858,6.7t7.853,2.183a15.44,15.44,0,0,0,8.169-1.865,14.393,14.393,0,0,0,4.605-4.287,13.213,13.213,0,0,0,2.022-4.678,20.417,20.417,0,0,0,.438-3.055Z" transform="translate(517.843 61.885)" fill="#fff"/>
      <path id="Path_10" data-name="Path 10" d="M-188.088-43.819v-8.169h3.015v8.169Zm0,48.476v-40.78h3.015V4.657Z" transform="translate(542.078 53.337)" fill="#fff"/>
      <path id="Path_11" data-name="Path 11" d="M-179.691-36.031h.241a9.871,9.871,0,0,1,2.024-3.727,14.229,14.229,0,0,1,3.57-3.015,17.64,17.64,0,0,1,4.676-1.944,19.081,19.081,0,0,1,5.355-.6V-42.3a14.309,14.309,0,0,0-5.433.476,13.183,13.183,0,0,0-5.828,3.491,28.289,28.289,0,0,0-1.944,2.3,10.738,10.738,0,0,0-1.387,2.462,15.186,15.186,0,0,0-.876,3.013,26.912,26.912,0,0,0-.4,3.968V-4.3H-182.7v-40.78h3.013Z" transform="translate(549.306 62.289)" fill="#fff"/>
      <path id="Path_12" data-name="Path 12" d="M-171.493-23.885v.478a24.147,24.147,0,0,0,.953,6.822,17.418,17.418,0,0,0,2.828,5.714,13.42,13.42,0,0,0,4.69,3.886,14.368,14.368,0,0,0,6.562,1.429q6.132,0,9.706-3.216a16.806,16.806,0,0,0,4.936-8.923h3.013q-1.349,7.14-5.829,10.947T-156.5-2.939a17.964,17.964,0,0,1-7.892-1.628,15.98,15.98,0,0,1-5.632-4.442,18.707,18.707,0,0,1-3.373-6.662,29.606,29.606,0,0,1-1.111-8.291,29.014,29.014,0,0,1,1.153-8.213,20.522,20.522,0,0,1,3.446-6.9,17.058,17.058,0,0,1,5.756-4.76,17.421,17.421,0,0,1,8.129-1.787,17.227,17.227,0,0,1,7.576,1.588,15.878,15.878,0,0,1,5.517,4.322,19.192,19.192,0,0,1,3.366,6.349,25.3,25.3,0,0,1,1.153,7.735c0,.265-.012.567-.042.911s-.035.623-.035.832ZM-141.5-26.5a24.5,24.5,0,0,0-1.115-6.306,15.653,15.653,0,0,0-2.823-5.238,14.045,14.045,0,0,0-4.538-3.608A13.264,13.264,0,0,0-156.06-43a14.285,14.285,0,0,0-6.447,1.389,14.381,14.381,0,0,0-4.687,3.65,16.273,16.273,0,0,0-2.947,5.273,25.077,25.077,0,0,0-1.274,6.189Z" transform="translate(560.313 61.885)" fill="#fff"/>
      <path id="Path_13" data-name="Path 13" d="M-153.781-17.459a12.613,12.613,0,0,0,1.267,5.041,12.325,12.325,0,0,0,2.9,3.727,12.031,12.031,0,0,0,4.165,2.34,16.171,16.171,0,0,0,5.156.794,27.478,27.478,0,0,0,4.245-.358,14.757,14.757,0,0,0,4.2-1.307,8.739,8.739,0,0,0,3.212-2.661,7.039,7.039,0,0,0,1.272-4.322,6.383,6.383,0,0,0-2.064-5.156,14.439,14.439,0,0,0-5.194-2.7,53.626,53.626,0,0,0-6.747-1.546,35,35,0,0,1-6.742-1.785,13.677,13.677,0,0,1-5.2-3.371q-2.063-2.182-2.059-6.386a8.857,8.857,0,0,1,1.345-5.037,10.056,10.056,0,0,1,3.451-3.216,15.75,15.75,0,0,1,4.725-1.7,26.755,26.755,0,0,1,5.236-.518,23.867,23.867,0,0,1,5.948.715,12.963,12.963,0,0,1,4.8,2.3,10.994,10.994,0,0,1,3.17,4.046,13.965,13.965,0,0,1,1.152,5.953h-3.013a11.364,11.364,0,0,0-.914-4.763A8.4,8.4,0,0,0-132-40.585a11.077,11.077,0,0,0-3.847-1.82,18.188,18.188,0,0,0-4.76-.6,22.4,22.4,0,0,0-4.168.4,12.06,12.06,0,0,0-3.769,1.349,8.494,8.494,0,0,0-2.739,2.46,6.131,6.131,0,0,0-1.068,3.65,6.214,6.214,0,0,0,1.19,3.966,8.491,8.491,0,0,0,3.132,2.42,21.627,21.627,0,0,0,4.364,1.469q2.421.552,4.882,1.11,3,.552,5.671,1.307a16.044,16.044,0,0,1,4.6,2.064,9.362,9.362,0,0,1,3.055,3.371,10.981,10.981,0,0,1,1.11,5.236,9.315,9.315,0,0,1-1.506,5.475,11.678,11.678,0,0,1-3.8,3.451,16.224,16.224,0,0,1-5.121,1.825,30.528,30.528,0,0,1-5.512.515,21.84,21.84,0,0,1-6.466-.914,14.553,14.553,0,0,1-5.2-2.776,13.178,13.178,0,0,1-3.493-4.561,15.312,15.312,0,0,1-1.345-6.269Z" transform="translate(584.094 61.885)" fill="#fff"/>
    </g>
    <g id="Group_3" data-name="Group 3" transform="translate(213.549 121.003)">
      <g id="Group_2" data-name="Group 2" transform="translate(0 39.603)">
        <path id="Path_14" data-name="Path 14" d="M-196.214-105.4q-25.114-23.361-59.653-23.363c-18.5,0-34.9,5.187-49.272,15.372a63.994,63.994,0,0,1,12.233,10.261,33.626,33.626,0,0,1,4.76,6.435,59.682,59.682,0,0,1,32.279-8.953,60.741,60.741,0,0,1,42.629,16.656q18.016,16.653,17.769,40.513T-213.491-8.462Q-231.267,7.7-255.866,7.7q-24.366,0-42.01-16.157t-17.9-40.017a56.443,56.443,0,0,1,2.277-16.08,50.089,50.089,0,0,0-22.981,9.865c-1.166.869-2.155,1.823-3.238,2.732-.049,1.164-.166,2.3-.166,3.484q0,33.554,24.853,56.668t59.161,23.119q34.542,0,59.653-23.119t25.1-56.668Q-171.11-82.033-196.214-105.4Z" transform="translate(339.88 128.763)" fill="#fff"/>
      </g>
      <path id="Path_15" data-name="Path 15" d="M-266.671-145.316h24.607V-104.3h53.939v23.119h-53.939V-4.557q0,3.472,2.113,10.174t4.1,9.422q9.7,13.641,34.3,13.639h18.392V51.3q-1.483,0-15.906.246-10.689.253-17.4,0a79.508,79.508,0,0,1-16.153-2.727,44.539,44.539,0,0,1-24.614-17.127,47.615,47.615,0,0,1-9.443-28.8Z" transform="translate(438.172 146.141)" fill="#fff"/>
      <path id="Path_16" data-name="Path 16" d="M-154.115,31.309q-34.31,0-59.161-23.119t-24.853-56.668q0-33.555,24.853-56.921t59.161-23.363q34.542,0,59.653,23.363t25.1,56.921q0,33.554-25.1,56.668T-154.115,31.309Zm0-136.957q-24.612,0-42.256,16.656t-17.649,40.513q.243,23.863,17.9,40.017T-154.115,7.7q24.6,0,42.376-16.157t18.02-40.017q.246-23.863-17.769-40.513A60.731,60.731,0,0,0-154.115-105.648Z" transform="translate(476.494 168.366)" fill="#fff"/>
      <path id="Path_17" data-name="Path 17" d="M-163.118-96.868a47.338,47.338,0,0,1,9.441-28.585,45.845,45.845,0,0,1,24.614-17.4,70.685,70.685,0,0,1,16.155-2.483q6.951-.5,17.4-.251,14.414.5,15.909.5v22.37H-98q-24.358,0-34.3,13.341-1.993,2.727-4.1,9.518t-2.113,10.005v9.389h54.185V-57.1h-54.185V51.769h-24.6Z" transform="translate(577.206 145.668)" fill="#fff"/>
    </g>
    <g id="Group_5" data-name="Group 5" transform="translate(0 0)">
      <g id="Group_4" data-name="Group 4" transform="translate(0 0)">
        <path id="Path_18" data-name="Path 18" d="M-278.652,108.631c-8.424-5.36-16.977-10.53-25.249-16.115-22.314-15.061-42.42-32.6-59.275-53.709-19.388-24.27-32.989-51.29-38.2-82.109-4.549-26.929-2.919-53.412,8.026-78.74,7-16.19,18.908-28.587,32.722-39.2,21.639-16.626,46.056-27.711,72.008-35.659.339-.1.691-.164,1.8-.422-2.57,2.668-4.685,4.833-6.77,7.028-20.873,21.981-38.489,46.2-50.233,74.317q-33.829,80.993,8.712,157.87c13.854,25.019,32.663,45.934,54.562,64.169.775.644,1.56,1.277,2.34,1.914Z" transform="translate(467.679 197.321)" fill="#fff"/>
        <path id="Path_19" data-name="Path 19" d="M-321.232,2.256c-18.441-20.163-36.109-40.237-46.229-65.605-3.828-9.6-6.049-19.521-3.908-29.918,2.467-11.973,9.9-20.229,20.479-25.56,21.224-10.7,43.233-11.528,65.558-3.868,11.42,3.917,21.859,9.687,30.124,18.743,3.634,3.985,6.6,8.377,6.709,14.138.014.665,1.08,1.459,1.823,1.935,3.156,2.022,6.7,3.566,9.5,5.983,5.276,4.559,7.117,10.547,5.51,17.443-.782,4.409-5.006,8.738-7.749,10.427,1.37-3.273,1.968-5.611-.026-6.712-19.514-10.783-39.2-12.081-58.474,2.265C-317.936-43.568-325.7-23.112-321.232,2.256Z" transform="translate(510.031 290.717)" fill="#fff"/>
        <path id="Path_20" data-name="Path 20" d="M-268.968,51.539c-7.328-2.612-14.693-5.116-21.969-7.859-25.279-9.53-49.582-21.006-71.825-36.5-17.495-12.191-33.076-26.345-44.712-44.425-9.963-15.482-15.838-32.284-15.852-50.875-.016-18.038,5.774-34.291,15.4-49.308a105.965,105.965,0,0,1,18.568-21.878c-.829,5.625-1.635,10.612-2.289,15.616-3.163,24.256-3.511,48.415,2.722,72.312,7.264,27.847,22.874,50.5,43.65,69.918,18.593,17.375,39.642,31.323,61.578,44.02,4.926,2.851,9.9,5.611,14.859,8.412Z" transform="translate(441.393 248.357)" fill="#fff"/>
        <path id="Path_21" data-name="Path 21" d="M-294.156-8.766c-13.264-2.917-26.533-5.805-39.79-8.754-17.848-3.973-35.643-8.159-52.676-14.983-9.071-3.633-17.72-8.016-25.251-14.421-14.07-11.968-19.978-27.39-19.076-45.5.529-10.659,3.317-20.421,6.882-27.015.508,2.3.93,4.193,1.349,6.091,6.2,28.1,22.171,49.4,45.557,65.58,18.275,12.646,38.4,21.587,58.973,29.618,8.029,3.134,16.153,6.025,24.235,9.029Z" transform="translate(431.038 301.882)" fill="#fff"/>
      </g>
    </g>
  </g>
</svg>
